<svg width="96" height="94" viewBox="0 0 96 94" fill="none" xmlns="http://www.w3.org/2000/svg">
<path d="M94.2532 45.5002C79.8093 47.4924 75.7843 58.4152 69.3286 61.9592C69.2782 61.9869 69.2248 62.0098 69.1703 62.0277C60.21 64.9727 53.1887 60.5325 32.2532 71.0002M24.2532 75.0002C25.5362 74.17 30.2522 71.7376 32.2532 71.0002M32.2532 71.0002C26.2661 64.2988 14.9024 42.6939 19.2249 9.21784C19.2432 9.07612 19.2923 8.93749 19.3679 8.81622L20.4995 7.00024M80.7532 81.5002C77.957 91.4865 42.1848 92.6637 22.8328 92.003C22.7785 92.0011 22.7259 91.9947 22.6725 91.9843C18.5497 91.1756 15.1207 91.7217 14.0786 91.9296C13.8651 91.9722 13.6407 91.9537 13.4426 91.8634C-9.16268 81.5548 8.5652 12.8745 4.49999 8.50024C3.83332 7.77524 2.49951 4 2.49951 1" stroke="black" stroke-width="2" stroke-linecap="round"/>
</svg>
