<svg width="105" height="134" viewBox="0 0 105 134" fill="none" xmlns="http://www.w3.org/2000/svg">
<path d="M104.254 85.5002C89.81 87.4924 85.785 98.4151 79.3293 101.959C79.2789 101.987 79.2255 102.01 79.171 102.028C70.2107 104.973 63.1893 100.532 42.2539 111M34.2538 115C35.5369 114.17 40.2529 111.737 42.2539 111M42.2539 111C36.2896 104.324 24.9894 82.8575 29.1771 49.5984C29.223 49.2335 29.4757 48.9164 29.8178 48.7813C39.7136 44.8728 38.6495 41.4726 39.7539 40C42.4441 36.4131 42.7219 35.6406 49.2407 32.9954C50.4849 32.4905 50.923 30.9089 49.9027 30.036C45.1362 25.958 40.8446 29.6198 37.7539 32M33.2539 35C36.7539 32 35.7539 33 37.7539 32M37.7539 32C37.7539 30.3862 36.3959 30.4855 35.4027 28.7759C35.3005 28.6001 35.2693 28.3934 35.2975 28.1919C36.2699 21.2437 36.8095 12.6317 37.2539 7.50005C37.2539 3.03116 31.8297 4.4796 32.2444 8.41745C32.2501 8.47145 32.2532 8.51889 32.2509 8.57314C32.2126 9.47152 31.7942 18.4249 30.1699 22.7705C29.8834 23.537 29.1345 23.3562 29.1327 22.5379C29.1213 17.4634 30.0932 5.18844 29.7539 3.50009C29.3873 1.6757 25.7997 -0.472509 24.7732 3.91568C24.7605 3.97006 24.7451 4.02051 24.7258 4.07289C23.6438 7.00234 24.5863 20.4998 22.7101 24.3265C22.5002 24.7545 22.0094 24.7474 21.8812 24.2882C20.9614 20.9948 21.7188 8.08859 21.7528 7.51948C21.754 7.49934 21.754 7.48996 21.7537 7.46979C21.722 5.00634 17.8318 2.57237 16.3023 7.34394C16.2701 7.44435 16.255 7.54332 16.2574 7.64874C16.2915 9.15193 16.556 21.64 16.0555 26.7136C15.9781 27.4984 15.1887 27.6341 14.9284 26.8897C13.7825 23.6127 13.7546 17.8034 13.7539 15.1894C13.7539 15.0622 13.7309 14.9376 13.6768 14.8225C12.5989 12.53 9.53558 13.1505 9.25391 15.5C9.25396 24.8966 9.25385 41.1403 14.0918 47.7834C14.1974 47.9283 14.3381 48.0167 14.4673 48.1409C18.6621 52.1757 0.776853 121.524 23.4433 131.863C23.6413 131.954 23.8658 131.972 24.0793 131.929C25.1214 131.722 28.5503 131.175 32.6732 131.984C32.7265 131.995 32.7792 132.001 32.8335 132.003C52.1855 132.663 87.9577 131.486 90.7539 121.5" stroke="black" stroke-width="2"/>
<path d="M6.2538 15C5.2538 16.6667 3.7538 21.1 5.7538 25.5M1.75382 13.5C1.08715 15.8333 0.253819 21.6 2.25382 26M40.7538 11.5C41.4205 12.6667 42.0538 16.3 39.2538 21.5M44.7538 11.5C45.4205 13.5 45.8538 18.7 42.2538 23.5" stroke="black" stroke-width="2"/>
</svg>
