<svg width="53" height="51" viewBox="0 0 53 51" fill="none" xmlns="http://www.w3.org/2000/svg">
<path d="M49.9042 33.2501C43.3855 35.8952 43.1077 36.6677 40.4175 40.2547C39.3197 41.7183 39.7493 44.9803 30.6153 48.9573C30.2062 49.1354 29.7273 49.0107 29.4316 48.6766C25.3084 44.0161 20.4477 44.6278 15.7141 47.7118C15.2636 48.0053 14.6563 47.921 14.3668 47.468C9.91763 40.5063 9.91753 24.894 9.91748 15.7559L9.91748 15.7546C10.1992 13.4052 13.2625 12.7846 14.3404 15.0771C14.3945 15.1922 14.4175 15.3168 14.4175 15.444C14.4182 18.058 14.446 23.8673 15.592 27.1444C15.8523 27.8887 16.6417 27.753 16.7191 26.9683C17.2196 21.8947 16.9551 9.40657 16.921 7.90338C16.9186 7.79796 16.9337 7.69899 16.9659 7.59857C18.4953 2.82701 22.3856 5.26098 22.4173 7.72442C22.4176 7.7446 22.4175 7.75398 22.4163 7.77412C22.3824 8.34323 21.625 21.2494 22.5448 24.5429C22.673 25.002 23.1638 25.0091 23.3737 24.5811C25.2499 20.7544 24.3074 7.25697 25.3893 4.32753C25.4087 4.27515 25.424 4.2247 25.4368 4.17032C26.4632 -0.21787 30.0509 1.93034 30.4175 3.75472C30.7567 5.44308 29.7849 17.718 29.7962 22.7925C29.7981 23.6109 30.547 23.7916 30.8335 23.0251C32.4578 18.6796 32.8762 9.72616 32.9145 8.82778C32.9168 8.77353 32.9137 8.72609 32.908 8.67209C32.4933 4.73424 37.9175 3.2858 37.9175 7.75469C37.4731 12.8863 36.9335 21.4984 35.9611 28.4466C35.9329 28.648 35.9641 28.8547 36.0663 29.0306C37.0594 30.7401 38.4175 30.6408 38.4175 32.2547C41.5082 29.8745 45.7998 26.2126 50.5663 30.2906C51.5866 31.1635 51.1485 32.7452 49.9042 33.2501Z" fill="white"/>
<path d="M29.9175 49.2547C40.4176 45.2546 39.2925 41.7547 40.4175 40.2547C43.1077 36.6677 43.3855 35.8952 49.9042 33.2501C51.1485 32.7452 51.5866 31.1635 50.5663 30.2906C45.7998 26.2126 41.5082 29.8745 38.4175 32.2547M33.9175 35.2547C37.4175 32.2547 36.4175 33.2547 38.4175 32.2547M38.4175 32.2547C38.4175 30.6408 37.0594 30.7401 36.0663 29.0306C35.9641 28.8547 35.9329 28.648 35.9611 28.4466C36.9335 21.4984 37.4731 12.8863 37.9175 7.75469C37.9175 3.2858 32.4933 4.73424 32.908 8.67209C32.9137 8.72609 32.9168 8.77353 32.9145 8.82778C32.8762 9.72616 32.4578 18.6796 30.8335 23.0251C30.547 23.7916 29.7981 23.6109 29.7962 22.7925C29.7849 17.718 30.7567 5.44308 30.4175 3.75472C30.0509 1.93034 26.4632 -0.21787 25.4368 4.17032C25.424 4.2247 25.4087 4.27515 25.3893 4.32753C24.3074 7.25697 25.2499 20.7544 23.3737 24.5811C23.1638 25.0091 22.673 25.002 22.5448 24.5429C21.625 21.2494 22.3824 8.34323 22.4163 7.77412C22.4175 7.75398 22.4176 7.7446 22.4173 7.72442C22.3856 5.26098 18.4953 2.82701 16.9659 7.59857C16.9337 7.69899 16.9186 7.79796 16.921 7.90338C16.9551 9.40657 17.2196 21.8946 16.7191 26.9683C16.6417 27.753 15.8523 27.8887 15.592 27.1444C14.446 23.8673 14.4182 18.058 14.4175 15.444C14.4175 15.3168 14.3945 15.1922 14.3404 15.0771C13.2625 12.7846 10.1992 13.4052 9.91748 15.7546C9.91754 25.255 9.91742 41.7546 14.9175 48.2546" stroke="black" stroke-width="2" stroke-linecap="round"/>
<path d="M6.88759 16.2554C5.88759 17.922 4.38759 22.3554 6.38759 26.7554M2.38761 14.7554C1.72094 17.0887 0.887608 22.8554 2.88761 27.2554M41.3876 12.7554C42.0542 13.922 42.6876 17.5554 39.8876 22.7554M45.3876 12.7554C46.0542 14.7554 46.4876 19.9554 42.8876 24.7554" stroke="black" stroke-width="2"/>
</svg>
