<svg width="104" height="112" viewBox="0 0 104 112" fill="none" xmlns="http://www.w3.org/2000/svg">
<path d="M0.753906 68.9999C12.2539 66.4999 20.8557 70.0654 27.7539 74.5C34.7539 79.0001 40.923 82.5 46.7539 82.5C51.7539 82.5 63.9768 82.9243 73.2539 87M82.2539 91.5C80.1424 89.3885 76.6194 88.4786 73.2539 87M73.2539 87C75.4043 80.0276 79.2948 61.5805 64.1029 35.1039C63.8809 34.7169 63.5218 34.41 63.1119 34.2337C53.858 30.2534 56.0871 24.8126 50.7539 23C48.0945 22.0962 46.3188 21.7946 45.0432 22.0093C43.1298 22.3315 40.3841 22.3107 40.5367 20.3763C41.013 14.3375 46.3622 14.2164 52.7539 15.4999M64.7539 21.5015C64.7539 20.4037 59.0831 16.7709 52.7539 15.4999M52.7539 15.4999C55.2539 4.99977 59.33 -1.86267 62.2539 3.50006M59.2539 10C53.2539 11.5001 68.2966 25.7114 64.7539 7.9998C64.2539 5.50006 62.8209 4.53992 62.2539 3.50006M62.2539 3.50006C65.7539 1.00006 70.3733 -0.729994 71.7539 6.50003M66.7539 11C64.2539 18.5 72.2539 21.5 72.2539 11.5C72.2539 10.3737 71.9216 7.37815 71.7539 6.50003M71.7539 6.50003C74.6736 4.90345 77.7539 4.00006 77.7539 11M77.7539 11C81.5872 12.1317 83.2539 9.99992 83.2539 15.4999C83.2539 17.5187 83.1255 17.7972 82.2539 19M77.7539 11C77.7539 15.8334 78.2539 14.9999 76.7539 17.5M71.2539 16.3651C71.2539 18.3651 74.2539 21 76.7539 17.5M76.7539 17.5C74.9434 18.3556 76.3947 20.9972 78.7539 22C79.6647 22.3872 81.3416 20.259 82.2539 19M34.2539 105C51.1397 110.629 74.7352 110.996 92.9318 111C93.1467 111 93.3659 110.962 93.5706 110.897C103.744 107.64 103.244 114.312 102.254 96C101.47 81.4936 88.7726 47.8685 81.2067 34.2987C80.9189 33.7825 80.8723 33.1831 81.0573 32.6218C82.259 28.9763 84.0752 21.5711 82.2539 19" stroke="#333333" stroke-width="2"/>
</svg>
